<svg width="13" height="22" fill="none" xmlns="http://www.w3.org/2000/svg"><path d="M8.618.023a5.932 5.932 0 0 0-3.767 1.662 5.962 5.962 0 0 0-1.779 3.434c-.042.263-.047.393-.055 1.58l-.009 1.292L1.889 8c-.961.008-1.138.015-1.245.045-.335.097-.502.266-.596.605-.034.125-.037.318-.037 2.346s.003 2.221.037 2.345c.094.339.261.509.596.605.107.031.284.038 1.246.045L3.012 14v3.581c0 2.288.007 3.623.021 3.695.056.293.245.536.486.627.22.082.41.089 2.483.089 2.07 0 2.262-.007 2.481-.089.247-.092.439-.349.486-.648.015-.091.022-1.388.023-3.7v-3.558l.969-.001c.534 0 1.053-.009 1.154-.02.251-.026.407-.089.552-.221.216-.197.212-.184.803-2.553l.533-2.134-.007-.217c-.006-.185-.017-.236-.068-.341-.1-.205-.33-.373-.634-.463-.116-.035-.276-.039-1.715-.046l-1.587-.008V5.981l1.673-.006 1.674-.006.123-.049a.775.775 0 0 0 .452-.455c.08-.215.089-.502.081-2.648-.007-1.848-.011-2.06-.045-2.173-.075-.256-.181-.403-.362-.501-.245-.134-.179-.129-2.015-.134a66.362 66.362 0 0 0-1.955.014M11.007 3v1.006l-1.176.008c-1.143.007-1.18.009-1.335.056-.373.113-.63.26-.884.507a1.938 1.938 0 0 0-.592 1.246c-.028.297-.028 3.068 0 3.335.012.109.041.252.066.318.093.251.348.443.649.49.085.013.705.022 1.567.022 1.348 0 1.425.002 1.414.038l-.253 1.008-.242.969-1.194.001c-1.303 0-1.386.006-1.598.122a.814.814 0 0 0-.343.389 1.64 1.64 0 0 0-.066.319c-.013.119-.021 1.596-.021 3.681l-.001 3.483H4.983v-3.606c0-2.557-.007-3.64-.024-3.721a.806.806 0 0 0-.439-.572c-.189-.086-.338-.095-1.46-.096H1.993V9.988H3.06c.637 0 1.124-.009 1.208-.023.262-.042.466-.169.579-.361.131-.224.124-.113.138-2.118.013-1.992.013-1.981.14-2.481a3.97 3.97 0 0 1 2.058-2.573c.465-.235.903-.359 1.495-.425.035-.004.574-.009 1.197-.01l1.132-.004V3" fill-rule="evenodd" fill="#000"/></svg>