<svg width="24" height="25" viewBox="0 0 24 25" fill="none" xmlns="http://www.w3.org/2000/svg">
<path fill-rule="evenodd" clip-rule="evenodd" d="M7 3.01611C4.79086 3.01611 3 4.80697 3 7.01611V17.0161C3 19.2253 4.79086 21.0161 7 21.0161H17C19.2091 21.0161 21 19.2253 21 17.0161V7.01611C21 4.80697 19.2091 3.01611 17 3.01611H7ZM1 7.01611C1 3.7024 3.68629 1.01611 7 1.01611H17C20.3137 1.01611 23 3.7024 23 7.01611V17.0161C23 20.3298 20.3137 23.0161 17 23.0161H7C3.68629 23.0161 1 20.3298 1 17.0161V7.01611Z" fill="#02897A"/>
<path fill-rule="evenodd" clip-rule="evenodd" d="M12.4833 9.00511C11.8591 8.91255 11.2216 9.01917 10.6615 9.30979C10.1014 9.60042 9.64721 10.0603 9.36351 10.6239C9.07982 11.1875 8.98107 11.8263 9.08132 12.4493C9.18157 13.0723 9.47571 13.6478 9.9219 14.094C10.3681 14.5402 10.9436 14.8343 11.5666 14.9346C12.1896 15.0348 12.8283 14.9361 13.392 14.6524C13.9556 14.3687 14.4155 13.9145 14.7061 13.3544C14.9967 12.7943 15.1033 12.1568 15.0108 11.5326C14.9164 10.8959 14.6197 10.3065 14.1645 9.85134C13.7094 9.39621 13.12 9.09952 12.4833 9.00511ZM9.74037 7.53455C10.6739 7.05017 11.7363 6.87248 12.7766 7.02674C13.8378 7.1841 14.8202 7.67857 15.5788 8.43713C16.3373 9.19568 16.8318 10.1781 16.9891 11.2392C17.1434 12.2796 16.9657 13.342 16.4813 14.2755C15.997 15.209 15.2306 15.966 14.2912 16.4388C13.3518 16.9117 12.2872 17.0762 11.2489 16.9092C10.2105 16.7421 9.25134 16.2518 8.50768 15.5082C7.76403 14.7645 7.2738 13.8053 7.10672 12.767C6.93964 11.7287 7.10422 10.6641 7.57704 9.72471C8.04987 8.78531 8.80687 8.01892 9.74037 7.53455Z" fill="#02897A"/>
<path fill-rule="evenodd" clip-rule="evenodd" d="M16.5 6.51611C16.5 5.96383 16.9477 5.51611 17.5 5.51611H17.51C18.0623 5.51611 18.51 5.96383 18.51 6.51611C18.51 7.0684 18.0623 7.51611 17.51 7.51611H17.5C16.9477 7.51611 16.5 7.0684 16.5 6.51611Z" fill="#02897A"/>
</svg>
