<svg width="24" height="20" fill="none" xmlns="http://www.w3.org/2000/svg"><path d="M15.887.044a5.483 5.483 0 0 0-4.346 3.096c-.301.626-.436 1.143-.501 1.915-.02.239-.047.445-.059.458-.031.031-.759-.062-1.201-.154a9.897 9.897 0 0 1-4.6-2.352A10.92 10.92 0 0 1 4.05 1.76c-.281-.38-.517-.629-.67-.71-.176-.092-.524-.081-.729.024-.403.206-.538.41-.812 1.223a15.128 15.128 0 0 0-.641 2.943c-.065.562-.066 2.042-.004 2.54.256 2.021.951 3.64 2.194 5.108.557.659 1.561 1.531 2.253 1.958.153.095.279.182.279.193 0 .012-.212.105-.47.207-1.328.527-2.396.739-3.93.778-.922.024-1.084.059-1.276.278-.147.167-.216.399-.215.718.002.483.174.688.894 1.062a15.937 15.937 0 0 0 5.557 1.739c.701.088 2.252.122 2.92.063 2.654-.233 4.852-1.028 6.955-2.515 2.904-2.054 4.898-5.459 5.441-9.289.12-.853.165-1.448.172-2.3l.005-.76.304-.38a8.377 8.377 0 0 0 1.406-2.491c.164-.442.317-1.054.316-1.267-.002-.518-.454-.871-1.071-.836-.265.015-.294.027-.757.325-.516.332-1.293.741-1.757.925l-.285.113-.26-.214C18.832.34 17.258-.115 15.887.044M17.36 2.1a4.54 4.54 0 0 1 1.107.505c.106.072.347.281.536.463.189.182.409.358.489.391.223.093.506.074.931-.062.211-.068.391-.117.399-.109.008.008-.148.194-.345.413-.198.22-.397.469-.442.555-.093.176-.095.22-.055 1.304.081 2.154-.491 4.593-1.518 6.48a14.585 14.585 0 0 1-1.167 1.76c-.362.455-1.145 1.233-1.623 1.612A12.171 12.171 0 0 1 12 17.379c-1.918.62-4.075.739-6.2.344-.593-.11-.839-.172-.819-.204.009-.015.13-.059.268-.098.928-.259 2.672-1.11 3.38-1.651.196-.149.375-.542.379-.835.006-.452-.119-.577-1.049-1.045-.744-.375-1.29-.703-1.767-1.062C4.466 11.528 3.46 9.817 3.18 7.7c-.134-1.012-.049-2.626.185-3.516l.041-.156.307.299c1.44 1.402 3.388 2.444 5.447 2.915.855.195 1.374.252 2.343.255l.883.003.195-.12a.752.752 0 0 0 .294-.314c.096-.185.1-.232.127-1.219.031-1.129.07-1.354.324-1.86.524-1.043 1.387-1.71 2.517-1.946.278-.057 1.217-.021 1.517.059" fill-rule="evenodd" fill="#000"/></svg>